<svg xmlns="http://www.w3.org/2000/svg" id="Livello_1" data-name="Livello 1" viewBox="0 0 620 250"><defs><style>.cls-1{fill:#fff;}</style></defs><path class="cls-1" d="M92.14,198.36c-1.85-.17-3.72-.29-5.57-.54a42.71,42.71,0,0,1-14.21-4.53A51.81,51.81,0,0,1,66.94,190a43.86,43.86,0,0,1-10.5-10.34,44.64,44.64,0,0,1-7.15-14.82,41.57,41.57,0,0,1-1.6-11.68q0-50.46,0-100.92V51c.73,0,1.4,0,2.06,0a52.75,52.75,0,0,1,17.5,4.7,86,86,0,0,1,9.34,4.84c1,.59,1.94,1.2,2.93,1.78a.94.94,0,0,1,.53,1c0,.27,0,.53,0,.8q0,40.81,0,81.64a29.16,29.16,0,0,0,1.41,9.38A29.53,29.53,0,0,0,86.13,164a52.13,52.13,0,0,0,5.05,5.35c.89.86,1.76,1.75,2.64,2.63,1.22,1.24,2.42,2.48,3.65,3.7a1.22,1.22,0,0,1,.4,1.23,6.59,6.59,0,0,0,5.39,7.59A6.41,6.41,0,0,0,110,181.3a6.55,6.55,0,0,0-4.32-9.63,10,10,0,0,0-2.45-.07,1,1,0,0,1-.9-.3q-2.55-2.6-5.12-5.16c-1.31-1.31-2.64-2.59-3.92-3.92a24.9,24.9,0,0,1-4-5.37,22.92,22.92,0,0,1-2.68-11.17V67.27c.22.16.42.33.54.43,2.69,2.2,5.41,4.37,8.06,6.63a116,116,0,0,1,9.59,9.24q2.25,2.42,4.44,4.87c2.57,2.9,5,5.91,7.31,9.06.63.87,1.26,1.74,1.91,2.6a2,2,0,0,1,.41,1.3c0,1.94,0,3.89,0,5.84,0,7.43,0,14.86,0,22.29a30.2,30.2,0,0,0,2.35,11.77,28.76,28.76,0,0,0,6.29,9.34l8.27,8.26c.43.43.81.92,1.27,1.3a1.35,1.35,0,0,1,.44,1.56c-.56,2.1-1,4.24-1.71,6.28s-1.59,3.77-2.42,5.65a5.19,5.19,0,0,1-.37.66c-.19-.16-.37-.31-.51-.45l-8.29-8.36-6.86-6.86c-1.75-1.76-3.56-3.46-5.26-5.27a22.69,22.69,0,0,1-3.76-5.53,23.48,23.48,0,0,1-2.29-10.5q0-13.31,0-26.62a1.51,1.51,0,0,1,.65-1.39,6.53,6.53,0,1,0-9.17-1.31,5.15,5.15,0,0,0,1.29,1.26,1.5,1.5,0,0,1,.67,1.47q0,7.42,0,14.86c0,4.39,0,8.79,0,13.18a28.43,28.43,0,0,0,3.08,12.29,26.73,26.73,0,0,0,4.53,6.59c1.68,1.79,3.46,3.48,5.19,5.22.86.85,1.72,1.7,2.57,2.57,2.08,2.09,4.14,4.19,6.22,6.28q3.54,3.57,7.09,7.11c.36.37.74.72,1.19,1.14a7.78,7.78,0,0,1-.61.87c-1.34,1.51-2.63,3.08-4.07,4.5a44.75,44.75,0,0,1-13.61,9.16,47.39,47.39,0,0,1-9.49,2.94.8.8,0,0,1-.83-.27c-.94-.94-1.9-1.85-2.84-2.79-2-2.05-4.06-4.11-6.1-6.16l-9.71-9.76L75.56,172c-1-1-2-2.11-3.08-3.17a3.17,3.17,0,0,1-.34-.39,24.09,24.09,0,0,1-4.06-7.8,24.54,24.54,0,0,1-1-7.13V86.26c0-.24,0-.55,0-.71a1,1,0,0,1,.63-1,9.55,9.55,0,0,0,4.46-3.93,9.29,9.29,0,0,0,.61-8.94,9.77,9.77,0,0,0-15.61-3.3,9.84,9.84,0,0,0-1.9,12,9.27,9.27,0,0,0,4.44,4.09,1.18,1.18,0,0,1,.79,1.33q0,13.83,0,27.68,0,20.18,0,40.33a30.39,30.39,0,0,0,2,10.87,27.88,27.88,0,0,0,6.14,9.66c2.1,2.15,4.23,4.26,6.35,6.38.82.82,1.64,1.63,2.45,2.46l6.15,6.22q3.6,3.62,7.21,7.24c.48.48,1.17,1.11,1.66,1.59C92.42,198.34,92.37,198.36,92.14,198.36Z"></path><path class="cls-1" d="M125.58,111.18c.43.69.79,1.21,1.07,1.76,1.33,2.63,2.68,5.26,3.94,7.92.85,1.79,1.63,3.63,2.33,5.49.84,2.21,1.57,4.47,2.34,6.72a68,68,0,0,1,2.54,11.33,54.15,54.15,0,0,1,.62,6.85c0,.22,0,.45,0,.87-.38-.33-.64-.53-.88-.77-2.16-2.2-4.31-4.42-6.47-6.63a8.4,8.4,0,0,1-.73-.85,24.22,24.22,0,0,1-3.84-7.52,21.53,21.53,0,0,1-1-6.17q0-9.2,0-18.39C125.54,111.66,125.56,111.52,125.58,111.18Z"></path><path class="cls-1" d="M67,75.56a3.11,3.11,0,0,1-3.12,3.25,3.21,3.21,0,1,1-.07-6.42A3.14,3.14,0,0,1,67,75.56Z"></path><circle class="cls-1" cx="156.25" cy="94.54" r="11.42"></circle><rect class="cls-1" x="146.51" y="113.26" width="19.48" height="56.18"></rect><circle class="cls-1" cx="254.87" cy="94.54" r="11.42"></circle><rect class="cls-1" x="245.13" y="113.26" width="19.48" height="56.18"></rect><circle class="cls-1" cx="328.93" cy="94.54" r="11.42"></circle><rect class="cls-1" x="319.19" y="113.26" width="19.48" height="56.18"></rect><polygon class="cls-1" points="312.08 112.17 301.64 112.17 301.64 93.2 282.16 93.2 282.16 112.17 271.72 112.17 271.72 127.15 282.16 127.15 282.16 169.44 301.64 169.44 301.64 127.15 312.08 127.15 312.08 112.17"></polygon><path class="cls-1" d="M543.81,113.26a28.09,28.09,0,1,0,28.09,28.09A28.09,28.09,0,0,0,543.81,113.26Zm0,39.51a11.42,11.42,0,1,1,11.42-11.42A11.42,11.42,0,0,1,543.81,152.77Z"></path><path class="cls-1" d="M372,113.26v.07a28.08,28.08,0,0,0,0,56v.07h36.77V113.26Zm5.3,39a10.86,10.86,0,1,1,10.86-10.86A10.86,10.86,0,0,1,377.3,152.21Z"></path><path class="cls-1" d="M200.28,113.26v.07a28.08,28.08,0,0,0,0,56v.07h2.82a24.66,24.66,0,0,0,16.36-6.18,23.53,23.53,0,0,1-1.39,8.71c0,.14-.08.28-.13.42h-.07l-.06.14c-1.68,4.81-6.88,8.32-13,8.32-5.79,0-10.74-3.1-12.71-7.47l-15.92,6.52c3.78,10.72,15.4,18.53,29.14,18.53,13.91,0,25.63-8,29.27-18.93h.17a33.45,33.45,0,0,0,2.08-10.06h.25V113.26Zm5.31,39a10.86,10.86,0,1,1,10.86-10.86A10.86,10.86,0,0,1,205.59,152.21Z"></path><path class="cls-1" d="M489.61,113.26H415.88v56.18H434v-30a8.94,8.94,0,0,1,17.88,0v30h19.31v-30a8.94,8.94,0,0,1,8.94-8.94h0a8.93,8.93,0,0,1,8.93,8.94v30h19.56V132.26A19,19,0,0,0,489.61,113.26Z"></path></svg>